<?xml version="1.0" encoding="UTF-8"?>
<svg id="Ebene_1" xmlns="http://www.w3.org/2000/svg" viewBox="0 0 255.5046 86.4994">
  <defs>
    <style>
      .cls-1 {
        fill: #9d9d9d;
      }

      .cls-2 {
        fill: #1075bd;
      }
    </style>
  </defs>
  <g>
    <path class="cls-2" d="M226.1025,50.5465h-11.271v-26.4745h-6.9251v-8.0067h6.9251v-2.1112c0-9.5204,4.3756-13.9541,13.7718-13.9541,1.4471,0,3.0546.1273,4.4108.3489l.2729.0445v7.7463l-.4548-.209c-.8339-.3836-1.6453-.5119-2.8061-.4628-2.7835.1143-3.9235,2.0712-3.9235,6.7499v36.3286ZM248.3833,51.329c-8.773,0-12.6884-3.9933-12.6884-12.9468v-14.3102h-9.5924v-8.0067h9.931v-6.2001l10.5929-5.4689v11.669h8.3317v8.0067h-8.3317v12.9882c0,3.7093.788,6.007,4.7133,6.007.9185,0,2.2639-.0784,3.4707-.4481l.4008-.1238.2935,7.9665-.253.0657c-1.9182.5016-4.4847.8014-6.8683.8014Z"/>
    <path class="cls-2" d="M12.6893,50.5465H0V4.3972h12.6893v18.2771c1.4697-1.9168,16.386-18.2771,16.386-18.2771h14.3174l-18.9812,21.5249,19.4063,22.7144v1.91h-13.9356s-14.6219-17.2203-17.1929-20.7233v20.7233ZM56.2757,50.5465h-12.4587V9.8652l12.4587-5.4689v46.1502Z"/>
    <path class="cls-2" d="M190.048,51.774c-10.7847,0-18.0312-7.3092-18.0312-18.1862,0-11.3376,6.9089-18.3811,18.0312-18.3811,10.7875,0,18.0321,7.3865,18.0321,18.3811,0,10.877-7.2447,18.1862-18.0321,18.1862ZM190.048,23.1178c-4.2234,0-6.9529,4.0586-6.9529,10.3394,0,6.2407,2.7295,10.2736,6.9529,10.2736,4.3153,0,6.9971-3.938,6.9971-10.2736,0-6.4739-2.6169-10.3394-6.9971-10.3394Z"/>
    <path class="cls-2" d="M59.4122,36.7316c.3828,4.0937,1.7623,7.1434,4.6035,10.1826,2.7025,2.8921,7.7058,4.8598,14.7975,4.8598,4.0442,0,7.468-.9978,10.1147-2.2414,2.6305-1.2382,4.6377-3.2122,6.102-5.6008,1.4661-2.3945,2.2099-5.0466,2.2099-7.8833,0-2.4093-.5538-4.617-1.6516-6.563-1.0933-1.9375-2.8709-3.59-5.2861-4.907-2.4432-1.3328-6.5613-2.6719-12.2364-3.9795-2.3972-.5348-3.8857-1.1099-4.5531-1.7578-.6988-.6349-1.0545-1.3706-1.0545-2.1874,0-1.0851.425-2.0172,1.2661-2.7718.8303-.7444,2.0614-1.1194,3.6615-1.1194,1.9244,0,3.4625.4957,4.5711,1.4746,1.249,1.1041,1.9496,2.3585,2.2648,4.0569l11.5078-1.0554c-.5412-4.2252-1.9883-6.9516-4.8295-9.1061-2.7763-2.1045-6.8089-3.7264-12.1328-3.7264-4.3531,0-7.2664.5642-10.3425,2.1261-2.4297,1.2373-4.3766,2.9393-5.5995,4.9476-1.2275,2.0131-1.8479,4.1812-1.8479,6.4428,0,3.4418,1.2121,6.3105,3.6003,8.5262,2.3999,2.2427,6.4909,4.0736,12.1589,5.4387,3.6022.8448,5.848,1.7345,6.8665,2.7142,1.0284.9883,1.5489,2.1334,1.5489,3.3977,0,1.3292-.5475,2.5102-1.6245,3.5098-1.0716.9933-2.6016,1.4972-4.5495,1.4972-2.6071,0-4.6422-.9735-6.0515-2.8907-.9807-1.3423-1.5327-2.7241-1.7785-4.4679l-11.7357,1.0838Z"/>
    <path class="cls-2" d="M138.4839,41.4382c.6618,3.2022,2.4737,5.4,4.6899,7.1488,2.2675,1.7912,5.8111,3.187,11.1845,3.187,3.8894,0,8.2137-1.1059,11.334-3.5967,2.6962-2.1514,4.0533-5.0146,4.0533-8.5338,0-1.9492-.4862-3.766-1.4444-5.3941-.9581-1.6268-2.3621-2.8979-4.1721-3.7782-1.8235-.887-4.6557-1.5903-8.4127-2.0906-2.5116-.3525-4.173-.7569-4.934-1.2031-.8015-.4719-1.2094-1.1769-1.2094-2.1,0-.8181.3179-1.5214.9437-2.0946.6141-.5624,1.6011-.8461,2.924-.8461,1.3003,0,2.426.3642,3.3454,1.0874.5691.4543,1.3022,1.2387,1.6264,2.3959l10.2624-1.1865c-1.3877-4.115-4.0506-6.9754-8.1354-8.3082-2.0739-.675-4.2523-.9456-6.4244-.9456-3.3247,0-6.1253.6529-8.0966,1.4643-1.9578.8059-3.5166,2.0392-4.6324,3.6692-1.3156,1.9249-1.9541,4.7358-1.657,7.0471.3405,2.6813,1.6561,5.2203,3.8345,6.7886.607.4376,1.2886.8231,1.9721,1.1194,2.4801,1.0748,5.143,1.5462,7.768,2.0887,2.6971.557,4.3153,1.0144,4.9511,1.399.9123.5587,1.376,1.3661,1.376,2.3949,0,.9082-.3503,1.6746-1.0428,2.2752-.8672.7916-2.0964,1.1919-3.6642,1.1919-1.431,0-2.5962-.3557-3.4607-1.0568-.5899-.4737-1.6498-1.5318-2.2046-3.3148l-10.7747,1.1919Z"/>
    <path class="cls-2" d="M99.1705,36.7316c.3818,4.0937,1.7623,7.1434,4.6026,10.1826,2.7015,2.8921,7.7058,4.8598,14.7974,4.8598,4.0443,0,7.469-.9978,10.1148-2.2414,2.6313-1.2382,4.6377-3.2122,6.1029-5.6008,1.4669-2.3945,2.2081-5.0466,2.2081-7.8833,0-2.4093-.5529-4.617-1.6507-6.563-1.0932-1.9375-2.8708-3.59-5.2842-4.907-2.4459-1.3328-6.5621-2.6719-12.2372-3.9795-2.3981-.5348-3.8858-1.1099-4.5531-1.7578-.6997-.6349-1.0555-1.3706-1.0555-2.1874,0-1.0851.4251-2.0172,1.2671-2.7718.8302-.7444,2.0613-1.1194,3.6606-1.1194,1.9253,0,3.4625.4957,4.571,1.4746,1.2481,1.1041,1.9497,2.3585,2.2649,4.0569l11.5087-1.0554c-.5421-4.2252-1.9902-6.9516-4.8295-9.1061-2.7781-2.1045-6.808-3.7264-12.1328-3.7264-4.3513,0-7.2673.5642-10.3425,2.1261-2.4297,1.2373-4.3766,2.9393-5.6013,4.9476-1.2248,2.0131-1.847,4.1812-1.847,6.4428,0,3.4418,1.2131,6.3105,3.6003,8.5262,2.399,2.2427,6.491,4.0736,12.159,5.4387,3.603.8448,5.8498,1.7345,6.8665,2.7142,1.0284.9883,1.5489,2.1334,1.5489,3.3977,0,1.3292-.5466,2.5102-1.6237,3.5098-1.0725.9933-2.6025,1.4972-4.5504,1.4972-2.607,0-4.6413-.9735-6.0515-2.8907-.9824-1.3423-1.5308-2.7241-1.7794-4.4679l-11.7339,1.0838Z"/>
  </g>
  <g>
    <path class="cls-1" d="M67.5119,71.3739c-.9624-.7236-2.0406-1.5806-3.6138-1.5723-3.3325.0166-5.1733,2.2481-5.1733,5.1729,0,2.9033,1.7998,5.249,4.8466,5.249.7769,0,1.3902-.2383,1.8804-.3623v-3.4062h-3.0254v-2.2491l6.6182.0059v6.4307c-1.2705,1.4277-3.9395,1.9873-5.4732,1.9873-4.622,0-8.1464-2.625-8.1464-7.4512,0-4.8867,3.1889-7.4946,8.1464-7.626,2.0103-.0542,4.1041.938,5.0484,1.6724l-1.1079,2.1489Z"/>
    <path class="cls-1" d="M79.4484,81.4764c-1.0024.5528-2.1475.8389-3.6187.8389-3.4765,0-5.5009-2.0039-5.5009-5.459,0-3.0468,1.6157-5.563,4.8872-5.563,3.9053,0,5.3237,2.6802,5.3237,6.3599h-6.8076c.1226,1.6973.7515,2.3711,2.5342,2.501,1.3257.0957,2.1601-.334,3.1821-.9063v2.2285ZM77.6081,75.7723c-.0816-1.3281-.6949-2.4746-2.229-2.4746s-1.6807,1.0635-1.8042,2.4746h4.0332Z"/>
    <path class="cls-1" d="M81.9611,72.0912c1.063-.4907,2.4941-.9541,3.6597-.9541,3.2109,0,4.6963,1.3281,4.6963,4.437v1.5068c0,1.0635.0205,1.8614.0419,2.6377.0201.7979.0611,1.5342.1221,2.3516h-2.7275c-.1021-.5527-.1021-.4619-.1226-.7881h0c-.6382,1.1738-2.9223,1.0332-3.1347,1.0332-1.8609,0-3.6807-1.125-3.6807-3.1289,0-1.5742.7974-2.4941,1.811-3.0605.94-.5254,2.0659-.8731,3.2119-.8731l1.5713-.0683c0-1.6973-.501-2.045-2.1162-2.045-1.1655,0-2.3306.6084-3.2514,1.3047l-.0811-2.353ZM85.1706,80.3114c.8354.0772,1.4668-.0469,1.8867-.4961.6567-.7031.4507-1.7939.4507-2.6113h-1.0279c-1.2275,0-2.4233.2041-2.4184,1.8193.0029.7237.3901,1.2217,1.1089,1.2881Z"/>
    <path class="cls-1" d="M99.4792,71.3441c-.3086-.1538-.6612-.2724-1.5264-.2724-1.5313,0-2.0981.6762-2.8311,1.7475v-1.5991h-3.1704v10.8179h3.1704v-5.8106c0-1.4375.712-2.3672,2.0967-2.374.8467-.0049,1.2442.2344,1.6113.498l.6495-3.0073h0Z"/>
    <path class="cls-1" d="M105.5559,67.895c1.1426-.1915,2.6309-.2979,4.2012-.2979,2.6094,0,4.3027.4893,5.627,1.5322,1.4277,1.1075,2.3242,2.8741,2.3242,5.4073,0,2.7451-.959,4.6396-2.2832,5.8105-1.4473,1.2559-3.6504,1.8525-6.3418,1.8525-1.6094,0-2.752-.1064-3.5274-.2128v-14.0918ZM108.677,79.602c.2637.0644.6914.0644,1.0801.0644,2.8125.0215,4.6484-1.5966,4.6484-5.0234.0196-2.9805-1.6503-4.5557-4.3222-4.5557-.6934,0-1.1426.0645-1.4063.128v9.3867Z"/>
    <path class="cls-1" d="M154.2268,71.641c-.041.6602-.082,1.5333-.082,3.087v5.8105c0,2.001-.3867,3.6406-1.5078,4.6836-1.1016.9785-2.5898,1.2773-4.0566,1.2773-1.3047,0-2.6915-.2773-3.5879-.8095l.6113-2.4473c.6309.3828,1.7324.7871,2.8945.7871,1.4668,0,2.5879-.8301,2.5879-2.7461v-.6806h-.041c-.5898.872-1.5488,1.3623-2.6895,1.3623-2.4668,0-4.2207-2.086-4.2207-5.0879,0-3.3418,2.0801-5.4697,4.5254-5.4697,1.3672,0,2.2227.6171,2.7325,1.4687h.041l.1015-1.2354h2.6914ZM151.0452,75.8774c0-.2129-.0195-.4258-.0605-.5957-.2247-.8516-.8145-1.4268-1.6719-1.4268-1.1211,0-2.0371,1.0645-2.0371,2.959,0,1.5537.7324,2.7676,2.0371,2.7676.7949,0,1.4277-.5537,1.6308-1.3203.0821-.2344.1016-.5743.1016-.8516v-1.5322Z"/>
    <path class="cls-1" d="M137.6819,74.1088c-1.5097-1.1054-2.5566-1.4043-3.2578-1.3926-.6602.0098-1.7109.2872-1.418,1.1856.3828,1.1758,5.2325,1.1269,5.2325,4.8555,0,2.3242-1.6485,3.3183-4.5547,3.3183-1.791,0-3.5098-.873-3.9942-1.1387v-1.8398c1.1367.4844,2.2754,1.1016,3.6075,1.1016,1.041,0,1.6953-.4727,1.6953-.9805,0-1.623-5.5469-1.332-5.5469-4.9883,0-2.0586,1.8652-3.4394,4.6269-3.4394,1.4043,0,2.8731.6914,4.0079,1.3828l-.3985,1.9355Z"/>
    <path class="cls-1" d="M156.3323,71.2006h3.0703v1.2754l.041-.1582c.8379-1.1387,1.709-1.3633,3.1407-1.3633,2.4941,0,3.5879,1.7461,3.5781,4.4473v6.6445h-3.2129v-5.623c0-1.2891.1367-3.4961-1.6211-3.5-2.0977-.002-1.7832,2.6191-1.7832,3.9687v5.1543h-3.2129v-10.8457Z"/>
    <path class="cls-1" d="M139.9182,71.4721h2.7051v10.3867h-2.7051v-10.3867ZM139.9182,66.9955h2.7051v2.5801h-2.7051v-2.5801Z"/>
    <path class="cls-1" d="M139.9182,71.4721h2.7051v10.3867h-2.7051v-10.3867ZM139.9182,66.9955h2.7051v2.5801h-2.7051v-2.5801Z"/>
    <path class="cls-1" d="M127.5872,81.3119c-1.002.5528-2.1465.8379-3.6192.8379-3.4765,0-5.5019-2.0019-5.5019-5.4589,0-3.0469,1.6172-5.5625,4.8887-5.5625,3.9062,0,5.3242,2.6796,5.3242,6.3593h-6.8086c.123,1.6973.7519,2.3731,2.5351,2.502,1.3262.0957,2.1602-.334,3.1817-.9063v2.2285ZM125.7473,75.6069c-.082-1.3282-.6953-2.4727-2.2304-2.4727-1.5332,0-1.6797,1.0625-1.8028,2.4727h4.0332Z"/>
    <path class="cls-1" d="M189.2254,70.8653c3,0,5.295,2.293,5.295,5.8184,0,3.0683-1.9414,5.5156-5.295,5.5156-3.3339,0-5.4296-2.4473-5.4296-5.5156,0-3.5254,2.4511-5.8184,5.4296-5.8184ZM189.1493,80.045c1.6347-.0273,2.1523-1.9082,2.1523-3.6933,0-1.6368-.8652-3.1797-2.0762-3.1739-1.4589.0098-2.2128,1.5781-2.2128,3.1739,0,1.7636.373,3.7207,2.1367,3.6933Z"/>
    <path class="cls-1" d="M172.3836,81.5079c1.2774.4121,2.9454.6172,4.2832.6172,3.1934,0,6.3223-1.0098,6.3223-4.7363,0-5.1895-6.9199-3.625-6.9199-5.9532,0-1.2558,1.7305-1.3789,2.6992-1.3789,1.0918,0,2.2031.2051,3.1934.6582l.2461-2.9238c-.9688-.3301-2.3282-.5352-3.7071-.5352-2.8847,0-6.2617.9473-6.2617,4.4063,0,5.2324,6.9219,3.543,6.9219,6.2207,0,1.1523-1.2774,1.4414-2.4942,1.4414-1.5859,0-2.9648-.4121-3.9531-.9473l-.3301,3.1309h0Z"/>
    <path class="cls-1" d="M227.6282,71.9752c1.0645-.4922,2.4942-.9551,3.6602-.9551,3.2109,0,4.6973,1.3282,4.6973,4.4375v1.5078c0,1.0625.0214,1.8594.0429,2.6368.0196.7968.0606,1.5332.1211,2.3515h-2.7265c-.1036-.5527-.1036-.4629-.1231-.789h0c-.6406,1.1738-2.9238,1.0332-3.1367,1.0332-1.8613,0-3.6817-1.1231-3.6817-3.127,0-1.5742.7989-2.4961,1.8125-3.0625.9395-.5234,2.0665-.873,3.211-.873l1.5742-.0664c0-1.6993-.5019-2.045-2.1172-2.045-1.166,0-2.332.6075-3.2519,1.3028l-.0821-2.3516ZM230.8372,80.1959c.836.0762,1.4668-.0488,1.8867-.4961.6582-.7051.4532-1.7949.4532-2.6133h-1.0293c-1.2266,0-2.4239.2051-2.418,1.8203.0019.7247.3887,1.2227,1.1074,1.2891Z"/>
    <path class="cls-1" d="M245.2936,71.353h0c-.3105-.1543-.6621-.2735-1.5273-.2735-1.5313,0-2.0977.6778-2.8301,1.7481v-1.5977h-3.1719v10.8164h3.1719v-5.8105c0-1.4356.7109-2.3653,2.0957-2.3731.8457-.0058,1.2442.2344,1.6113.4981l.6504-3.0078"/>
    <path class="cls-1" d="M254.4128,81.3614c-1.002.5528-2.1465.8379-3.6192.8379-3.4765,0-5.5-2.0019-5.5-5.4589,0-3.0469,1.6153-5.5625,4.8868-5.5625,3.9062,0,5.3242,2.6796,5.3242,6.3593h-6.8086c.123,1.6973.7519,2.3731,2.5351,2.502,1.3262.0957,2.1602-.334,3.1817-.9063v2.2285ZM252.5729,75.6564c-.082-1.3282-.6953-2.4727-2.2285-2.4727-1.5351,0-1.6816,1.0625-1.8047,2.4727h4.0332Z"/>
    <path class="cls-1" d="M223.7022,71.6868l-1.2851,4.8321c-.2247.8945-.3887,1.6816-.5508,2.5332h-.0606c-.1426-.8301-.3261-1.6602-.5722-2.5332l-1.3438-4.8321h-3.3652l.0007.002-1.2845,4.8301c-.2247.8945-.3887,1.6816-.5508,2.5332h-.0606c-.1426-.8301-.3261-1.6602-.5722-2.5332l-1.3438-4.8321h-3.3652l3.6288,10.4092h3.0996l2.0612-5.7817,2.0157,5.7817h3.0995l3.7109-10.4092h-3.2617Z"/>
    <path class="cls-1" d="M200.9184,73.5651h-1.5468v8.4812h-3.1787v-8.4812h-1.5474v-2.1748h1.5474v-1.6064c0-1.3106,1.163-2.5098,2.4257-2.5098.9424-.0508,1.6812.0049,2.2998.168v2.1738c-.8959,0-1.5468-.0977-1.5468.7265v1.0479h1.5468v2.1748h0Z"/>
    <path class="cls-1" d="M208.1876,71.401h-1.5469v-3.0113h-3.1787v3.0113h-1.5473v2.1748h1.5473v6.0214c0,1.3106,1.1631,2.5098,2.4258,2.5098.9424.0508,1.6812-.0049,2.2998-.168v-2.1738c-.896,0-1.5469.0977-1.5469-.7265v-5.4629h1.5469v-2.1748h0Z"/>
  </g>
</svg>