<?xml version="1.0" encoding="UTF-8"?>
<svg id="Ebene_1" xmlns="http://www.w3.org/2000/svg" viewBox="0 0 255.5046 51.774">
  <defs>
    <style>
      .cls-1 {
        fill: #1075bd;
      }
    </style>
  </defs>
  <path class="cls-1" d="M226.1025,50.5465h-11.271v-26.4745h-6.9251v-8.0067h6.9251v-2.1112c0-9.5204,4.3756-13.9541,13.7718-13.9541,1.4471,0,3.0546.1273,4.4108.3489l.2729.0445v7.7463l-.4548-.209c-.8339-.3836-1.6453-.5119-2.8061-.4628-2.7835.1143-3.9235,2.0712-3.9235,6.7499v36.3286ZM248.3833,51.329c-8.773,0-12.6884-3.9933-12.6884-12.9468v-14.3102h-9.5924v-8.0067h9.931v-6.2001l10.5929-5.4689v11.669h8.3317v8.0067h-8.3317v12.9882c0,3.7093.788,6.007,4.7133,6.007.9185,0,2.2639-.0784,3.4707-.4481l.4008-.1238.2935,7.9665-.253.0657c-1.9182.5016-4.4847.8014-6.8683.8014Z"/>
  <path class="cls-1" d="M12.6893,50.5465H0V4.3972h12.6893v18.2771c1.4697-1.9168,16.386-18.2771,16.386-18.2771h14.3174l-18.9812,21.5249,19.4063,22.7144v1.91h-13.9356s-14.6219-17.2203-17.1929-20.7233v20.7233ZM56.2757,50.5465h-12.4587V9.8652l12.4587-5.4689v46.1502Z"/>
  <path class="cls-1" d="M190.048,51.774c-10.7847,0-18.0312-7.3092-18.0312-18.1862,0-11.3376,6.9089-18.3811,18.0312-18.3811,10.7875,0,18.0321,7.3865,18.0321,18.3811,0,10.877-7.2447,18.1862-18.0321,18.1862ZM190.048,23.1178c-4.2234,0-6.9529,4.0586-6.9529,10.3394,0,6.2407,2.7295,10.2736,6.9529,10.2736,4.3153,0,6.9971-3.938,6.9971-10.2736,0-6.4739-2.6169-10.3394-6.9971-10.3394Z"/>
  <path class="cls-1" d="M59.4122,36.7316c.3828,4.0937,1.7623,7.1434,4.6035,10.1826,2.7025,2.8921,7.7058,4.8598,14.7975,4.8598,4.0442,0,7.468-.9978,10.1147-2.2414,2.6305-1.2382,4.6377-3.2122,6.102-5.6008,1.4661-2.3945,2.2099-5.0466,2.2099-7.8833,0-2.4093-.5538-4.617-1.6516-6.563-1.0933-1.9375-2.8709-3.59-5.2861-4.907-2.4432-1.3328-6.5613-2.6719-12.2364-3.9795-2.3972-.5348-3.8857-1.1099-4.5531-1.7578-.6988-.6349-1.0545-1.3706-1.0545-2.1874,0-1.0851.425-2.0172,1.2661-2.7718.8303-.7444,2.0614-1.1194,3.6615-1.1194,1.9244,0,3.4625.4957,4.5711,1.4746,1.249,1.1041,1.9496,2.3585,2.2648,4.0569l11.5078-1.0554c-.5412-4.2252-1.9883-6.9516-4.8295-9.1061-2.7763-2.1045-6.8089-3.7264-12.1328-3.7264-4.3531,0-7.2664.5642-10.3425,2.1261-2.4297,1.2373-4.3766,2.9393-5.5995,4.9476-1.2275,2.0131-1.8479,4.1812-1.8479,6.4428,0,3.4418,1.2121,6.3105,3.6003,8.5262,2.3999,2.2427,6.4909,4.0736,12.1589,5.4387,3.6022.8448,5.848,1.7345,6.8665,2.7142,1.0284.9883,1.5489,2.1334,1.5489,3.3977,0,1.3292-.5475,2.5102-1.6245,3.5098-1.0716.9933-2.6016,1.4972-4.5495,1.4972-2.6071,0-4.6422-.9735-6.0515-2.8907-.9807-1.3423-1.5327-2.7241-1.7785-4.4679l-11.7357,1.0838Z"/>
  <path class="cls-1" d="M138.4839,41.4382c.6618,3.2022,2.4737,5.4,4.6899,7.1488,2.2675,1.7912,5.8111,3.187,11.1845,3.187,3.8894,0,8.2137-1.1059,11.334-3.5967,2.6962-2.1514,4.0533-5.0146,4.0533-8.5338,0-1.9492-.4862-3.766-1.4444-5.3941-.9581-1.6268-2.3621-2.8979-4.1721-3.7782-1.8235-.887-4.6557-1.5903-8.4127-2.0906-2.5116-.3525-4.173-.7569-4.934-1.2031-.8015-.4719-1.2094-1.1769-1.2094-2.1,0-.8181.3179-1.5214.9437-2.0946.6141-.5624,1.6011-.8461,2.924-.8461,1.3003,0,2.426.3642,3.3454,1.0874.5691.4543,1.3022,1.2387,1.6264,2.3959l10.2624-1.1865c-1.3877-4.115-4.0506-6.9754-8.1354-8.3082-2.0739-.675-4.2523-.9456-6.4244-.9456-3.3247,0-6.1253.6529-8.0966,1.4643-1.9578.8059-3.5166,2.0392-4.6324,3.6692-1.3156,1.9249-1.9541,4.7358-1.657,7.0471.3405,2.6813,1.6561,5.2203,3.8345,6.7886.607.4376,1.2886.8231,1.9721,1.1194,2.4801,1.0748,5.143,1.5462,7.768,2.0887,2.6971.557,4.3153,1.0144,4.9511,1.399.9123.5587,1.376,1.3661,1.376,2.3949,0,.9082-.3503,1.6746-1.0428,2.2752-.8672.7916-2.0964,1.1919-3.6642,1.1919-1.431,0-2.5962-.3557-3.4607-1.0568-.5899-.4737-1.6498-1.5318-2.2046-3.3148l-10.7747,1.1919Z"/>
  <path class="cls-1" d="M99.1705,36.7316c.3818,4.0937,1.7623,7.1434,4.6026,10.1826,2.7015,2.8921,7.7058,4.8598,14.7974,4.8598,4.0443,0,7.469-.9978,10.1148-2.2414,2.6313-1.2382,4.6377-3.2122,6.1029-5.6008,1.4669-2.3945,2.2081-5.0466,2.2081-7.8833,0-2.4093-.5529-4.617-1.6507-6.563-1.0932-1.9375-2.8708-3.59-5.2842-4.907-2.4459-1.3328-6.5621-2.6719-12.2372-3.9795-2.3981-.5348-3.8858-1.1099-4.5531-1.7578-.6997-.6349-1.0555-1.3706-1.0555-2.1874,0-1.0851.4251-2.0172,1.2671-2.7718.8302-.7444,2.0613-1.1194,3.6606-1.1194,1.9253,0,3.4625.4957,4.571,1.4746,1.2481,1.1041,1.9497,2.3585,2.2649,4.0569l11.5087-1.0554c-.5421-4.2252-1.9902-6.9516-4.8295-9.1061-2.7781-2.1045-6.808-3.7264-12.1328-3.7264-4.3513,0-7.2673.5642-10.3425,2.1261-2.4297,1.2373-4.3766,2.9393-5.6013,4.9476-1.2248,2.0131-1.847,4.1812-1.847,6.4428,0,3.4418,1.2131,6.3105,3.6003,8.5262,2.399,2.2427,6.491,4.0736,12.159,5.4387,3.603.8448,5.8498,1.7345,6.8665,2.7142,1.0284.9883,1.5489,2.1334,1.5489,3.3977,0,1.3292-.5466,2.5102-1.6237,3.5098-1.0725.9933-2.6025,1.4972-4.5504,1.4972-2.607,0-4.6413-.9735-6.0515-2.8907-.9824-1.3423-1.5308-2.7241-1.7794-4.4679l-11.7339,1.0838Z"/>
</svg>